<?xml version="1.0" encoding="utf-8"?>
<!-- Generator: Adobe Illustrator 23.0.5, SVG Export Plug-In . SVG Version: 6.00 Build 0)  -->
<svg version="1.1" id="Layer_1" xmlns="http://www.w3.org/2000/svg" xmlns:xlink="http://www.w3.org/1999/xlink" x="0px" y="0px"
	 viewBox="0 0 24 32" style="enable-background:new 0 0 24 32;" xml:space="preserve">
<style type="text/css">
	.st0{fill:#B165FF;}
	.st1{fill:url(#SVGID_1_);}
	.st2{fill:#FE6DCB;}
	.st3{fill:#33AEF1;}
	.st4{fill:#FDD800;}
	.st5{fill:#B177EA;}
	.st6{fill:url(#SVGID_2_);}
	.st7{fill:url(#SVGID_3_);}
	.st8{fill:#390075;}
	.st9{fill:#FF459A;}
	.st10{fill:#FFFFFF;}
</style>
<rect x="0.9" y="18.6" class="st0" width="14.6" height="9.4"/>
<path class="st0" d="M8.1,23.5c-1.2,1.2,0.2,3,1.9,4.8c1.7,1.7,3.6,3.1,4.8,1.9c1.2-1.2,0.6-3.8-1.2-5.5
	C11.9,22.9,9.3,22.3,8.1,23.5z"/>
<path class="st0" d="M13.3,21.7c-1.2,1.2,0.2,3,1.9,4.8c1.7,1.7,3.6,3.1,4.8,1.9c1.2-1.2,0.6-3.8-1.2-5.5
	C17.1,21.2,14.5,20.6,13.3,21.7z"/>
<g>
	<g>
		<g>
			<linearGradient id="SVGID_1_" gradientUnits="userSpaceOnUse" x1="12.2654" y1="21.7452" x2="12.2654" y2="7.1046">
				<stop  offset="0" style="stop-color:#B16EFF"/>
				<stop  offset="1" style="stop-color:#BB80FF"/>
			</linearGradient>
			<path class="st1" d="M2.4,16.2c0.4,4,5.1,6,10.5,5.4c5.4-0.6,9.6-3.5,9.1-7.4c-0.4-4-5.3-7.6-10.7-7C5.9,7.7,2,12.2,2.4,16.2z"/>
		</g>
	</g>
	<g>
		<g>
			<path class="st2" d="M11,10.1c0.2,0,0.3,0,0.5,0c1-0.1,1.4-0.7,1.4-1.1C12.7,9.2,12,9.9,11,10.1z"/>
		</g>
	</g>
	<g>
		<g>
			<path class="st3" d="M10.5,10c0.1,0,0.2,0.1,0.3,0.1c0,0,0.1,0,0.1,0c1-0.3,1.7-0.9,1.9-1.1c0,0,0,0,0-0.1c0-0.3-0.1-0.7-0.2-1.1
				c0,0-0.8,1-2.3,1.4c-0.2,0-0.3,0.1-0.5,0.1C10,9.6,10.2,9.9,10.5,10z"/>
		</g>
	</g>
	<g>
		<g>
			<path class="st4" d="M9.9,9.4c0.2,0,0.4-0.1,0.5-0.1c1.5-0.4,2.3-1.4,2.3-1.4c-0.1-0.4-0.3-0.9-0.4-1.4c0,0-0.4,0.9-1.9,1.6
				C10.2,8.2,10,8.2,9.8,8.3C9.8,8.7,9.9,9.1,9.9,9.4C9.9,9.4,9.9,9.4,9.9,9.4z"/>
		</g>
	</g>
	<g>
		<g>
			<path class="st5" d="M9.8,8.3c0.2-0.1,0.4-0.2,0.6-0.3c1.4-0.7,1.9-1.6,1.9-1.6c-0.2-0.5-0.4-1-0.6-1.4c0,0-0.3,0.8-1.1,1.4
				c-0.2,0.2-0.4,0.3-0.7,0.4C9.8,7.3,9.8,7.9,9.8,8.3z"/>
		</g>
	</g>
	<g>
		<g>
			<path class="st2" d="M9.8,6.8c0.3-0.1,0.5-0.2,0.7-0.4c0.8-0.6,1.1-1.4,1.1-1.4c-0.2-0.3-0.4-0.6-0.6-0.7
				c-0.1-0.1-0.2-0.1-0.4-0.1C10.2,4.3,9.9,5.5,9.8,6.8z"/>
		</g>
	</g>
	<g>
		<g>
			<linearGradient id="SVGID_2_" gradientUnits="userSpaceOnUse" x1="5.719" y1="12.8085" x2="5.719" y2="6.6088">
				<stop  offset="0" style="stop-color:#B16EFF"/>
				<stop  offset="1" style="stop-color:#BB80FF"/>
			</linearGradient>
			<path class="st6" d="M7.8,9.7c0,0-1.2-3.3-2.6-3c-1.4,0.2-1.7,5.1-1.5,6.2C3.7,12.8,5.9,12.6,7.8,9.7z"/>
		</g>
	</g>
	<g>
		<g>
			<g>
				<path class="st2" d="M6.5,9.6c0,0-0.5-1.6-1.1-1.5c-0.6,0.1-0.8,2.6-0.7,3.1C4.8,11.2,5.7,11.1,6.5,9.6z"/>
			</g>
		</g>
	</g>
	<g>
		<g>
			<linearGradient id="SVGID_3_" gradientUnits="userSpaceOnUse" x1="17.6684" y1="10.5792" x2="17.6684" y2="4.9968">
				<stop  offset="0" style="stop-color:#B16EFF"/>
				<stop  offset="1" style="stop-color:#BB80FF"/>
			</linearGradient>
			<path class="st7" d="M15.3,8.6c0,0,0.2-3.5,1.6-3.6c1.4-0.2,3.1,4.4,3.2,5.5C20.1,10.6,17.9,11,15.3,8.6z"/>
		</g>
	</g>
	<g>
		<g>
			<g>
				<path class="st2" d="M16.4,8.2c0,0,0-1.7,0.7-1.8c0.7-0.1,1.5,2.3,1.6,2.8C18.7,9.3,17.7,9.5,16.4,8.2z"/>
			</g>
		</g>
	</g>
	<g>
		<g>
			<path class="st8" d="M19.3,13.3c0.3-0.2,0.6-0.4,1-0.5c0.3-0.2,0.7-0.3,1-0.4s0.7-0.2,1-0.3c0.2-0.1,0.4-0.1,0.5-0.1
				c0.1,0,0.2,0,0.3-0.1c0.1,0,0.2,0,0.3-0.1c-0.1,0-0.2,0-0.3,0s-0.2,0-0.3,0c-0.2,0-0.4,0-0.6,0c-0.4,0-0.8,0.1-1.1,0.3
				c-0.4,0.1-0.7,0.3-1,0.5C19.8,12.7,19.5,13,19.3,13.3z"/>
		</g>
	</g>
	<g>
		<g>
			<path class="st8" d="M19.5,14.2c0.4-0.1,0.7-0.2,1.1-0.3c0.4-0.1,0.7-0.1,1.1-0.2c0.4,0,0.7-0.1,1.1-0.1c0.2,0,0.4,0,0.6,0
				c0.1,0,0.2,0,0.3,0c0.1,0,0.2,0,0.3,0c-0.1,0-0.2-0.1-0.3-0.1c-0.1,0-0.2-0.1-0.3-0.1c-0.2,0-0.4-0.1-0.6-0.1
				c-0.4-0.1-0.8,0-1.2,0c-0.4,0-0.8,0.1-1.1,0.2C20.2,13.8,19.8,13.9,19.5,14.2z"/>
		</g>
	</g>
	<g>
		<g>
			<path class="st8" d="M19.6,15.4c0.4,0,0.7,0,1.1,0c0.4,0,0.7,0,1.1,0.1c0.4,0,0.7,0.1,1.1,0.2c0.2,0,0.4,0.1,0.5,0.1
				c0.1,0,0.2,0.1,0.3,0.1c0.1,0,0.2,0.1,0.3,0.1c-0.1-0.1-0.2-0.1-0.2-0.2c-0.1,0-0.2-0.1-0.2-0.1c-0.2-0.1-0.3-0.2-0.5-0.2
				c-0.4-0.1-0.7-0.2-1.1-0.3c-0.4,0-0.8,0-1.2,0C20.3,15.1,20,15.2,19.6,15.4z"/>
		</g>
	</g>
	<g>
		<g>
			<path class="st8" d="M4.4,14.7c-0.3-0.2-0.7-0.4-1-0.5C3,14.1,2.6,14,2.3,14c-0.4,0-0.8,0-1.2,0c-0.2,0-0.4,0.1-0.6,0.1
				c-0.1,0-0.2,0.1-0.3,0.1c-0.1,0-0.2,0.1-0.3,0.1c0.1,0,0.2,0,0.3,0c0.1,0,0.2,0,0.3,0c0.2,0,0.4,0,0.6,0c0.4,0,0.7,0,1.1,0
				c0.4,0,0.7,0.1,1.1,0.2C3.7,14.6,4,14.6,4.4,14.7z"/>
		</g>
	</g>
	<g>
		<g>
			<path class="st8" d="M4.4,15.7c-0.4-0.1-0.7-0.2-1.1-0.2c-0.4,0-0.8,0-1.1,0.1c-0.4,0.1-0.8,0.2-1.1,0.3
				c-0.2,0.1-0.3,0.2-0.5,0.2c-0.1,0-0.2,0.1-0.2,0.1c-0.1,0.1-0.2,0.1-0.2,0.2c0.1,0,0.2-0.1,0.3-0.1c0.1,0,0.2-0.1,0.3-0.1
				c0.2-0.1,0.4-0.1,0.5-0.2c0.4-0.1,0.7-0.2,1.1-0.2c0.4-0.1,0.7-0.1,1.1-0.1C3.7,15.7,4,15.7,4.4,15.7z"/>
		</g>
	</g>
	<g>
		<g>
			<path class="st8" d="M4.7,16.9c-0.4-0.1-0.8,0-1.1,0c-0.4,0.1-0.8,0.2-1.1,0.3c-0.4,0.1-0.7,0.3-1,0.5C1.3,17.8,1.1,18,1,18.1
				c-0.1,0.1-0.1,0.1-0.2,0.2c-0.1,0.1-0.1,0.1-0.2,0.2c0.1,0,0.2-0.1,0.2-0.1c0.1,0,0.2-0.1,0.2-0.1c0.2-0.1,0.3-0.2,0.5-0.3
				c0.3-0.2,0.7-0.3,1-0.5s0.7-0.3,1-0.4C4,17,4.3,16.9,4.7,16.9z"/>
		</g>
	</g>
	<g>
		<g>
			<path class="st8" d="M11.9,17.9c0.2,0.5,0.6,1.2,1.6,1.2c0.5,0,0.9-0.2,1.2-0.4c0.6-0.6,0.6-1.6,0.6-1.6
				c-1.4,0.6-1.7-0.9-1.7-0.9c0,1.7-1.8,1.2-1.8,1.2S11.8,17.5,11.9,17.9z"/>
		</g>
	</g>
	<g>
		<g>
			<path class="st9" d="M11.9,17.9c0.2,0.5,0.6,1.2,1.6,1.2c0.5,0,0.9-0.2,1.2-0.4C14.3,18.1,13.4,17.2,11.9,17.9z"/>
		</g>
	</g>
	<g>
		<g>
			<path class="st8" d="M13.7,19.3c0.4,0,0.7-0.2,1-0.4c0.7-0.6,0.7-1.8,0.7-1.8c0-0.1,0-0.2-0.1-0.2c-0.1,0-0.2,0-0.2,0
				c-0.3,0.1-0.6,0.2-0.8,0.1c-0.4-0.2-0.5-0.8-0.5-0.8c0-0.1-0.1-0.2-0.2-0.2c0,0,0,0,0,0c-0.1,0-0.2,0.1-0.2,0.2
				c0,0.4-0.1,0.7-0.3,0.8c-0.4,0.3-1.2,0.1-1.2,0.1c-0.1,0-0.1,0-0.2,0c-0.1,0-0.1,0.1-0.1,0.2c0,0.7,0.4,2,2,2
				C13.6,19.3,13.7,19.3,13.7,19.3z M15,17.4c-0.1,0.3-0.2,0.8-0.5,1.1c-0.2,0.2-0.6,0.3-0.9,0.3c-1.1,0-1.4-0.8-1.5-1.3
				c0.3,0,0.9,0,1.3-0.3c0.2-0.1,0.3-0.3,0.4-0.4c0.1,0.2,0.3,0.3,0.5,0.4C14.4,17.4,14.7,17.4,15,17.4z"/>
		</g>
	</g>
	<g>
		<g>
			<path class="st8" d="M13.4,16L13.4,16c0,0.1,0,0.2,0,0.2c0,0.1,0,0.1,0,0.2c0,0.1-0.1,0.2-0.1,0.3c-0.1,0.2-0.3,0.3-0.5,0.4
				c0,0-0.1,0-0.1,0l0,0l-0.1,0c-0.1,0-0.1,0-0.2,0l-0.1,0l-0.1,0l-0.1,0l0,0c0,0-0.1,0-0.1,0c-0.1,0-0.3-0.1-0.4-0.1
				c0,0-0.1,0-0.1,0c0,0-0.1,0-0.1,0c-0.1,0-0.1-0.1-0.2-0.1l0,0c0,0,0,0,0,0c0,0,0,0,0,0c0,0.1,0,0.2,0.1,0.3c0,0,0,0.1,0.1,0.1
				c0,0,0.1,0.1,0.1,0.1c0.1,0.1,0.3,0.2,0.5,0.2c0,0,0.1,0,0.1,0l0.1,0l0.1,0l0.1,0l0.1,0c0.1,0,0.2,0,0.2,0l0.1,0l0.1,0
				c0,0,0.1,0,0.1,0c0.2,0,0.4-0.1,0.5-0.2c0.2-0.1,0.3-0.3,0.4-0.4c0.1-0.2,0.1-0.3,0.1-0.5c0-0.1,0-0.2,0-0.3c0,0,0-0.1,0-0.1
				c0,0,0-0.1,0-0.1c0-0.1-0.1-0.2-0.3-0.2C13.5,15.7,13.4,15.8,13.4,16L13.4,16z"/>
		</g>
	</g>
	<g>
		<g>
			<path class="st8" d="M13.4,16c0,0,0,0.1,0,0.1c0,0,0,0.1,0,0.1c0,0.1,0,0.1,0,0.2c0,0.1,0.1,0.3,0.2,0.4c0.1,0.1,0.2,0.2,0.3,0.3
				c0.1,0.1,0.3,0.1,0.5,0.1c0.1,0,0.2,0,0.2,0c0.1,0,0.1,0,0.2,0c0.1,0,0.3-0.1,0.4-0.1c0,0,0.1,0,0.1-0.1c0,0,0,0,0,0l0,0
				c0,0,0,0,0,0c0,0,0,0,0,0c0,0,0-0.1,0.1-0.1c0,0,0-0.1,0-0.1c0,0,0-0.1,0-0.1c0-0.1,0-0.1-0.1-0.2c0,0,0,0,0,0c0,0,0,0,0,0l0,0
				c0,0.1-0.1,0.1-0.1,0.2c0,0,0,0-0.1,0.1l0,0c0,0,0,0,0,0c-0.1,0.1-0.2,0.1-0.3,0.1c-0.1,0-0.2,0-0.3,0.1l-0.2,0
				c-0.1,0-0.1,0-0.2,0c-0.1,0-0.2-0.1-0.3-0.1c-0.1-0.1-0.1-0.1-0.2-0.2c-0.1-0.1-0.1-0.2-0.1-0.3c0-0.1,0-0.1,0-0.2
				c0,0,0-0.1,0-0.1l0-0.1l0,0c0-0.1-0.1-0.2-0.3-0.2C13.5,15.8,13.4,15.9,13.4,16z"/>
		</g>
	</g>
	<g>
		<g>
			<g>
				<ellipse transform="matrix(0.9872 -0.1596 0.1596 0.9872 -2.0502 2.7756)" class="st8" cx="16.3" cy="14.2" rx="1.1" ry="1.4"/>
			</g>
		</g>
		<g>
			<g>
				<ellipse transform="matrix(0.9872 -0.1596 0.1596 0.9872 -2.0191 2.7239)" class="st10" cx="16" cy="13.9" rx="0.3" ry="0.4"/>
			</g>
		</g>
	</g>
	<g>
		<g>
			<g>
				
					<ellipse transform="matrix(0.9995 -3.150215e-02 3.150215e-02 0.9995 -0.4574 0.3253)" class="st8" cx="10.1" cy="14.7" rx="1.1" ry="1.4"/>
			</g>
		</g>
		<g>
			<g>
				
					<ellipse transform="matrix(0.9995 -3.150887e-02 3.150887e-02 0.9995 -0.449 0.3335)" class="st10" cx="10.4" cy="14.4" rx="0.3" ry="0.4"/>
			</g>
		</g>
	</g>
	<g>
		<g>
			<g>
				<path class="st8" d="M13.5,16.4c-0.8,0.1-1.4-0.7-1.2-0.9c0.1-0.1,0.3-0.2,0.5-0.3c0.4-0.1,0.7-0.2,1.1-0.1
					c0.2,0,0.4,0.1,0.5,0.1C14.7,15.4,14.3,16.3,13.5,16.4z"/>
			</g>
		</g>
	</g>
</g>
</svg>
