<?xml version="1.0" encoding="utf-8"?>
<!-- Generator: Adobe Illustrator 23.0.5, SVG Export Plug-In . SVG Version: 6.00 Build 0)  -->
<svg version="1.1" id="Layer_1" xmlns="http://www.w3.org/2000/svg" xmlns:xlink="http://www.w3.org/1999/xlink" x="0px" y="0px"
	 viewBox="0 0 24 32" style="enable-background:new 0 0 24 32;" xml:space="preserve">
<style type="text/css">
	.st0{fill:#B165FF;}
	.st1{fill:url(#SVGID_1_);}
	.st2{fill:#FE6DCB;}
	.st3{fill:#33AEF1;}
	.st4{fill:#FDD800;}
	.st5{fill:#B177EA;}
	.st6{fill:url(#SVGID_2_);}
	.st7{fill:url(#SVGID_3_);}
	.st8{fill:#390075;}
	.st9{fill:#FFFFFF;}
</style>
<rect x="0.9" y="18.7" class="st0" width="14.6" height="9.4"/>
<path class="st0" d="M8.1,23.5c-1.2,1.2,0.2,3,1.9,4.8c1.7,1.7,3.6,3.1,4.8,1.9c1.2-1.2,0.6-3.8-1.2-5.5C11.9,23,9.3,22.4,8.1,23.5z
	"/>
<path class="st0" d="M13.3,21.8c-1.2,1.2,0.2,3,1.9,4.8c1.7,1.7,3.6,3.1,4.8,1.9c1.2-1.2,0.6-3.8-1.2-5.5
	C17.1,21.3,14.5,20.7,13.3,21.8z"/>
<g>
	<g>
		<g>
			
				<linearGradient id="SVGID_1_" gradientUnits="userSpaceOnUse" x1="11.5534" y1="21.9682" x2="11.5534" y2="7.059" gradientTransform="matrix(0.9962 -8.715574e-02 8.715574e-02 0.9962 -1.0709 1.1497)">
				<stop  offset="0" style="stop-color:#B16EFF"/>
				<stop  offset="1" style="stop-color:#BB80FF"/>
			</linearGradient>
			<path class="st1" d="M21.7,14.8c0.3,4.1-4,6.9-9.4,7.3S2.2,20.2,1.9,16.1c-0.3-4.1,3.9-8.6,9.3-9C16.7,6.8,21.4,10.7,21.7,14.8z"
				/>
		</g>
	</g>
	<g>
		<g>
			<path class="st2" d="M12.1,10.1c-0.2,0-0.3,0.1-0.5,0.1c-1,0-1.5-0.5-1.5-0.9C10.3,9.5,11.1,10,12.1,10.1z"/>
		</g>
	</g>
	<g>
		<g>
			<path class="st3" d="M12.6,9.9c-0.1,0.1-0.2,0.1-0.3,0.2c0,0-0.1,0-0.1,0c-1-0.1-1.8-0.6-2.1-0.8c0,0,0,0,0-0.1
				c0-0.3,0-0.7,0-1.1c0,0,1,0.9,2.5,1c0.2,0,0.3,0,0.5,0C13,9.4,12.9,9.7,12.6,9.9z"/>
		</g>
	</g>
	<g>
		<g>
			<path class="st4" d="M13.1,9.1c-0.2,0-0.4,0-0.5,0C11,9,10,8.1,10,8.1c0-0.5,0.1-1,0.2-1.5c0,0,0.6,0.8,2.1,1.3
				C12.5,8,12.8,8,13,8.1C13,8.5,13.1,8.8,13.1,9.1C13.1,9.1,13.1,9.1,13.1,9.1z"/>
		</g>
	</g>
	<g>
		<g>
			<path class="st5" d="M13,8.1c-0.2,0-0.4-0.1-0.6-0.2c-1.6-0.5-2.1-1.3-2.1-1.3c0.1-0.5,0.2-1.1,0.4-1.5c0,0,0.5,0.7,1.3,1.2
				c0.2,0.1,0.5,0.2,0.8,0.3C12.8,7.1,12.9,7.6,13,8.1z"/>
		</g>
	</g>
	<g>
		<g>
			<path class="st2" d="M12.7,6.5c-0.3-0.1-0.5-0.2-0.8-0.3c-0.9-0.4-1.3-1.2-1.3-1.2c0.1-0.4,0.3-0.6,0.4-0.8
				c0.1-0.1,0.2-0.2,0.3-0.2C11.9,4.1,12.4,5.3,12.7,6.5z"/>
		</g>
	</g>
	<g>
		<g>
			
				<linearGradient id="SVGID_2_" gradientUnits="userSpaceOnUse" x1="17.6928" y1="12.149" x2="17.6928" y2="5.9652" gradientTransform="matrix(0.9962 -8.715574e-02 8.715574e-02 0.9962 -1.0709 1.1497)">
				<stop  offset="0" style="stop-color:#B16EFF"/>
				<stop  offset="1" style="stop-color:#BB80FF"/>
			</linearGradient>
			<path class="st6" d="M15.2,9.1c0,0,0.6-3.5,2-3.5c1.4,0,2.6,4.8,2.5,6C19.8,11.5,17.6,11.7,15.2,9.1z"/>
		</g>
	</g>
	<g>
		<g>
			<g>
				<path class="st2" d="M16.4,8.7c0,0,0.2-1.7,0.8-1.7c0.6,0,1.2,2.5,1.3,3C18.4,10.1,17.5,10.1,16.4,8.7z"/>
			</g>
		</g>
	</g>
	<g>
		<g>
			
				<linearGradient id="SVGID_3_" gradientUnits="userSpaceOnUse" x1="5.6656" y1="11.2753" x2="5.6656" y2="5.3368" gradientTransform="matrix(0.9962 -8.715574e-02 8.715574e-02 0.9962 -1.0709 1.1497)">
				<stop  offset="0" style="stop-color:#B16EFF"/>
				<stop  offset="1" style="stop-color:#BB80FF"/>
			</linearGradient>
			<path class="st7" d="M7.6,9.3c0,0-0.8-3.4-2.2-3.4C4,6,3.1,10.9,3.3,12.1C3.3,12.1,5.4,12.1,7.6,9.3z"/>
		</g>
	</g>
	<g>
		<g>
			<g>
				<path class="st2" d="M6.5,9.1c0,0-0.4-1.7-1-1.7C4.8,7.5,4.3,10,4.4,10.6C4.4,10.6,5.4,10.6,6.5,9.1z"/>
			</g>
		</g>
	</g>
	<g>
		<g>
			<path class="st8" d="M4.5,14.7c-0.4-0.1-0.7-0.3-1.1-0.4c-0.3-0.1-0.7-0.2-1.1-0.3s-0.7-0.1-1.1-0.2c-0.2,0-0.4,0-0.6,0
				c-0.1,0-0.2,0-0.3,0c-0.1,0-0.2,0-0.3,0c0.1,0,0.2-0.1,0.3-0.1s0.2,0,0.3-0.1c0.2,0,0.4-0.1,0.6-0.1c0.4,0,0.8,0,1.1,0.1
				c0.4,0.1,0.7,0.2,1.1,0.4C3.9,14.2,4.2,14.4,4.5,14.7z"/>
		</g>
	</g>
	<g>
		<g>
			<path class="st8" d="M4.4,15.6c-0.4-0.1-0.8-0.1-1.1-0.1c-0.4,0-0.7,0-1.1,0c-0.4,0-0.7,0.1-1.1,0.1c-0.2,0-0.4,0.1-0.5,0.1
				c-0.1,0-0.2,0-0.3,0.1s-0.2,0-0.3,0.1c0.1,0,0.2-0.1,0.2-0.1c0.1,0,0.2-0.1,0.3-0.1c0.2-0.1,0.4-0.2,0.5-0.2
				c0.4-0.1,0.7-0.2,1.1-0.2c0.4,0,0.8,0,1.2,0.1C3.7,15.4,4.1,15.5,4.4,15.6z"/>
		</g>
	</g>
	<g>
		<g>
			<path class="st8" d="M4.6,16.9c-0.4,0-0.7,0.1-1.1,0.2c-0.4,0.1-0.7,0.2-1.1,0.3c-0.4,0.1-0.7,0.2-1,0.4
				c-0.2,0.1-0.3,0.1-0.5,0.2c-0.1,0-0.2,0.1-0.3,0.1c-0.1,0-0.2,0.1-0.3,0.1c0.1-0.1,0.1-0.1,0.2-0.2c0.1-0.1,0.1-0.1,0.2-0.2
				c0.2-0.1,0.3-0.2,0.5-0.3c0.3-0.2,0.7-0.3,1.1-0.5c0.4-0.1,0.7-0.2,1.1-0.2C3.8,16.7,4.2,16.8,4.6,16.9z"/>
		</g>
	</g>
	<g>
		<g>
			<path class="st8" d="M19.4,13.6c0.3-0.3,0.6-0.5,0.9-0.7c0.3-0.2,0.7-0.3,1.1-0.4c0.4-0.1,0.8-0.2,1.1-0.2c0.2,0,0.4,0,0.6,0
				c0.1,0,0.2,0,0.3,0c0.1,0,0.2,0,0.3,0.1c-0.1,0-0.2,0-0.3,0c-0.1,0-0.2,0-0.3,0c-0.2,0-0.4,0-0.5,0.1c-0.4,0.1-0.7,0.1-1.1,0.2
				c-0.4,0.1-0.7,0.2-1,0.4C20.1,13.3,19.8,13.4,19.4,13.6z"/>
		</g>
	</g>
	<g>
		<g>
			<path class="st8" d="M19.6,14.5c0.3-0.2,0.7-0.3,1.1-0.4C21,14,21.4,14,21.8,14c0.4,0,0.8,0,1.1,0.1c0.2,0,0.4,0.1,0.5,0.2
				c0.1,0,0.2,0.1,0.3,0.1c0.1,0,0.2,0.1,0.3,0.1c-0.1,0-0.2,0-0.3,0c-0.1,0-0.2,0-0.3,0c-0.2,0-0.4-0.1-0.6-0.1c-0.4,0-0.7,0-1.1,0
				s-0.7,0-1.1,0.1C20.3,14.4,20,14.5,19.6,14.5z"/>
		</g>
	</g>
	<g>
		<g>
			<path class="st8" d="M19.5,15.8c0.4-0.1,0.7-0.2,1.1-0.2c0.4,0,0.8,0,1.1,0.1c0.4,0.1,0.7,0.2,1.1,0.4c0.2,0.1,0.3,0.2,0.5,0.3
				c0.1,0,0.2,0.1,0.2,0.2c0.1,0.1,0.1,0.1,0.2,0.2c-0.1,0-0.2-0.1-0.3-0.1c-0.1,0-0.2-0.1-0.3-0.1c-0.2-0.1-0.3-0.1-0.5-0.2
				c-0.4-0.1-0.7-0.2-1.1-0.3c-0.4-0.1-0.7-0.1-1.1-0.2C20.3,15.8,19.9,15.8,19.5,15.8z"/>
		</g>
	</g>
	<g>
		<g>
			<g>
				<path class="st8" d="M13.4,18.1c-0.1,0.4-0.2,0.8-0.4,1.1c-0.2,0.4-0.4,0.7-0.8,0.7c-0.3,0-0.6-0.2-0.9-0.6
					c-0.2-0.3-0.5-0.7-0.6-1.1c0.4-0.1,0.8-0.3,1.2-0.9C12,17.5,12.6,18.1,13.4,18.1z"/>
			</g>
		</g>
		<g>
			<g>
				<g>
					<path class="st8" d="M11.1,16.4c0.1-0.2,1.2-0.4,1.4-0.1c0.2,0.2-0.3,0.9-0.6,1C11.6,17.2,11,16.7,11.1,16.4z"/>
				</g>
			</g>
			<g>
				<g>
					<path class="st8" d="M11.8,17.5c-0.3,0-0.6-0.3-0.8-0.6c-0.2-0.3-0.1-0.5-0.1-0.6l0,0c0.1-0.2,0.6-0.3,0.9-0.4
						c0.3,0,0.7,0,0.9,0.2c0.1,0.1,0.2,0.3,0.1,0.6c-0.1,0.4-0.5,0.8-0.8,0.8C11.9,17.5,11.9,17.5,11.8,17.5z M11.3,16.5
						c0,0.1,0.1,0.1,0.2,0.3c0.1,0.1,0.3,0.2,0.4,0.2c0.1,0,0.2-0.1,0.3-0.3c0.1-0.1,0.1-0.2,0.1-0.3C12.2,16.3,11.5,16.4,11.3,16.5
						z M12.4,16.4L12.4,16.4L12.4,16.4z"/>
				</g>
			</g>
		</g>
		<g>
			<g>
				<path class="st8" d="M10.4,18.6c-0.5-0.1-0.8-0.4-1-0.6c0,0,0,0,0,0c-0.1-0.1-0.1-0.1-0.1-0.1c-0.1-0.1-0.1-0.2,0-0.3
					c0.1-0.1,0.2-0.1,0.3,0l0,0c0,0,0,0,0.1,0.1c0,0,0,0,0,0c0.1,0.2,0.5,0.5,1.1,0.4c0.4-0.1,0.7-0.3,1.1-0.8c0,0,0.1-0.1,0.1-0.1
					c0.1,0,0.1,0,0.2,0.1c0,0,0.6,0.6,1.2,0.6c0.4,0,0.7-0.2,0.9-0.7l0,0c0,0,0,0,0,0c0,0,0-0.1,0.1-0.1c0.1-0.1,0.2-0.1,0.3-0.1
					s0.1,0.2,0.1,0.3c0,0-0.1,0.1-0.1,0.1c0,0,0,0,0,0c-0.3,0.5-0.8,0.8-1.2,0.9c-0.6,0-1.1-0.3-1.4-0.5c-0.4,0.5-0.8,0.7-1.2,0.8
					C10.6,18.6,10.5,18.6,10.4,18.6z"/>
			</g>
		</g>
		<g>
			<g>
				<path class="st8" d="M12.1,20.2c-0.3,0-0.6-0.3-0.9-0.6c-0.2-0.3-0.5-0.7-0.6-1.1c0-0.1,0-0.1,0-0.2c0-0.1,0.1-0.1,0.2-0.1
					c0.4-0.1,0.7-0.3,1.1-0.8c0,0,0.1-0.1,0.1-0.1c0.1,0,0.1,0,0.2,0.1c0,0,0.6,0.6,1.2,0.6c0.1,0,0.1,0,0.2,0.1
					c0,0.1,0.1,0.1,0,0.2c-0.1,0.4-0.2,0.9-0.4,1.2c-0.3,0.5-0.6,0.8-0.9,0.8C12.2,20.2,12.1,20.2,12.1,20.2z M11,18.5
					c0.1,0.3,0.3,0.5,0.5,0.8c0.3,0.3,0.5,0.5,0.7,0.5c0.2,0,0.4-0.2,0.6-0.6c0.1-0.2,0.2-0.5,0.3-0.8c0,0,0,0,0,0
					c-0.5-0.1-0.9-0.3-1.1-0.5C11.7,18.2,11.4,18.4,11,18.5z"/>
			</g>
		</g>
	</g>
	<g>
		<g>
			<g>
				<ellipse transform="matrix(0.9897 -0.1434 0.1434 0.9897 -1.8999 2.2309)" class="st8" cx="14.5" cy="14.3" rx="1.1" ry="1.4"/>
			</g>
		</g>
		<g>
			<g>
				<ellipse transform="matrix(0.9897 -0.1434 0.1434 0.9897 -1.8707 2.1851)" class="st9" cx="14.2" cy="14.1" rx="0.3" ry="0.4"/>
			</g>
		</g>
	</g>
	<g>
		<g>
			<g>
				
					<ellipse transform="matrix(0.9995 -3.067872e-02 3.067872e-02 0.9995 -0.4511 0.2658)" class="st8" cx="8.4" cy="14.8" rx="1.1" ry="1.4"/>
			</g>
		</g>
		<g>
			<g>
				
					<ellipse transform="matrix(0.9995 -3.068461e-02 3.068461e-02 0.9995 -0.4426 0.2737)" class="st9" cx="8.7" cy="14.6" rx="0.3" ry="0.4"/>
			</g>
		</g>
	</g>
</g>
</svg>
