<?xml version="1.0" encoding="utf-8"?>
<!-- Generator: Adobe Illustrator 23.0.5, SVG Export Plug-In . SVG Version: 6.00 Build 0)  -->
<svg version="1.1" id="Layer_1" xmlns="http://www.w3.org/2000/svg" xmlns:xlink="http://www.w3.org/1999/xlink" x="0px" y="0px"
	 viewBox="0 0 15 32" style="enable-background:new 0 0 15 32;" xml:space="preserve">
<style type="text/css">
	.st0{fill:#8F47E2;}
	.st1{fill:#B165FF;}
	.st2{fill:#C08AFF;}
</style>
<path class="st0" d="M9.6,20.9C7.7,21.4,8,24,8.8,26.8c0.7,2.8,1.8,5.2,3.7,4.7s2.8-3.5,2.1-6.3C13.8,22.5,11.4,20.4,9.6,20.9z"/>
<path class="st1" d="M1,24.5C1,20.9,3.9,18,7.5,18H15v10H4.5C2.6,28,1,26.4,1,24.5z"/>
<path class="st2" d="M6.1,17.2c0.7,1.2-0.3,2.1-1.6,2.8c-1.2,0.7-2.6,1.1-3.2,0c-0.7-1.2-0.1-2.9,1.1-3.6C3.7,15.7,5.4,16,6.1,17.2z
	"/>
<path class="st1" d="M1.6,23.7c-1.4,1.4,0.2,3.5,2.2,5.5s4.2,3.6,5.5,2.2c1.4-1.4,0.7-4.4-1.3-6.4C6.1,23,3,22.3,1.6,23.7z"/>
</svg>
